<mxfile host="Electron" agent="Mozilla/5.0 (Windows NT 10.0; Win64; x64) AppleWebKit/537.36 (KHTML, like Gecko) draw.io/24.7.17 Chrome/128.0.6613.36 Electron/32.0.1 Safari/537.36" version="24.7.17">
  <diagram name="Page-1" id="z4dNOhMtUZEt3Gq2XhWJ">
    <mxGraphModel dx="1235" dy="740" grid="1" gridSize="10" guides="1" tooltips="1" connect="1" arrows="1" fold="1" page="1" pageScale="1" pageWidth="850" pageHeight="1100" math="0" shadow="0">
      <root>
        <mxCell id="0" />
        <mxCell id="1" parent="0" />
        <mxCell id="irH001_9f2ed2AuSBidk-1" value="Управління обліком історичних пам’яток" style="rounded=0;whiteSpace=wrap;html=1;" vertex="1" parent="1">
          <mxGeometry x="280" y="280" width="290" height="140" as="geometry" />
        </mxCell>
        <mxCell id="irH001_9f2ed2AuSBidk-2" value="" style="endArrow=classic;html=1;rounded=0;entryX=0;entryY=0.25;entryDx=0;entryDy=0;" edge="1" parent="1">
          <mxGeometry width="50" height="50" relative="1" as="geometry">
            <mxPoint x="80" y="310" as="sourcePoint" />
            <mxPoint x="280" y="310" as="targetPoint" />
          </mxGeometry>
        </mxCell>
        <mxCell id="irH001_9f2ed2AuSBidk-5" value="Інформація про пам&#39;ятки" style="text;html=1;align=center;verticalAlign=middle;whiteSpace=wrap;rounded=0;fontSize=10;" vertex="1" parent="1">
          <mxGeometry x="57" y="287" width="160" height="30" as="geometry" />
        </mxCell>
        <mxCell id="irH001_9f2ed2AuSBidk-6" value="" style="endArrow=classic;html=1;rounded=0;entryX=0;entryY=0.25;entryDx=0;entryDy=0;" edge="1" parent="1">
          <mxGeometry width="50" height="50" relative="1" as="geometry">
            <mxPoint x="80" y="350" as="sourcePoint" />
            <mxPoint x="279" y="350" as="targetPoint" />
          </mxGeometry>
        </mxCell>
        <mxCell id="irH001_9f2ed2AuSBidk-7" value="Заявки на додавання/оновлення даних" style="text;html=1;align=center;verticalAlign=middle;whiteSpace=wrap;rounded=0;fontSize=10;" vertex="1" parent="1">
          <mxGeometry x="60" y="328" width="221" height="30" as="geometry" />
        </mxCell>
        <mxCell id="irH001_9f2ed2AuSBidk-8" value="" style="endArrow=classic;html=1;rounded=0;entryX=0;entryY=0.25;entryDx=0;entryDy=0;" edge="1" parent="1">
          <mxGeometry width="50" height="50" relative="1" as="geometry">
            <mxPoint x="80" y="389" as="sourcePoint" />
            <mxPoint x="280" y="389" as="targetPoint" />
          </mxGeometry>
        </mxCell>
        <mxCell id="irH001_9f2ed2AuSBidk-9" value="Історичні дослідження" style="text;html=1;align=center;verticalAlign=middle;whiteSpace=wrap;rounded=0;fontSize=10;" vertex="1" parent="1">
          <mxGeometry x="52" y="367" width="160" height="30" as="geometry" />
        </mxCell>
        <mxCell id="irH001_9f2ed2AuSBidk-10" value="" style="endArrow=classic;html=1;rounded=0;entryX=0;entryY=0.25;entryDx=0;entryDy=0;" edge="1" parent="1">
          <mxGeometry width="50" height="50" relative="1" as="geometry">
            <mxPoint x="570" y="301.76" as="sourcePoint" />
            <mxPoint x="770" y="301.76" as="targetPoint" />
          </mxGeometry>
        </mxCell>
        <mxCell id="irH001_9f2ed2AuSBidk-11" value="Оновлені звіти про стан пам&#39;яток" style="text;html=1;align=center;verticalAlign=middle;whiteSpace=wrap;rounded=0;fontSize=10;" vertex="1" parent="1">
          <mxGeometry x="602" y="280" width="160" height="30" as="geometry" />
        </mxCell>
        <mxCell id="irH001_9f2ed2AuSBidk-12" value="" style="endArrow=classic;html=1;rounded=0;entryX=0;entryY=0.25;entryDx=0;entryDy=0;" edge="1" parent="1">
          <mxGeometry width="50" height="50" relative="1" as="geometry">
            <mxPoint x="570" y="331.76" as="sourcePoint" />
            <mxPoint x="770" y="331.76" as="targetPoint" />
          </mxGeometry>
        </mxCell>
        <mxCell id="irH001_9f2ed2AuSBidk-13" value="Договори на експлуатацію" style="text;html=1;align=center;verticalAlign=middle;whiteSpace=wrap;rounded=0;fontSize=10;" vertex="1" parent="1">
          <mxGeometry x="618" y="310" width="160" height="30" as="geometry" />
        </mxCell>
        <mxCell id="irH001_9f2ed2AuSBidk-14" value="" style="endArrow=classic;html=1;rounded=0;entryX=0;entryY=0.25;entryDx=0;entryDy=0;" edge="1" parent="1">
          <mxGeometry width="50" height="50" relative="1" as="geometry">
            <mxPoint x="570" y="361.76" as="sourcePoint" />
            <mxPoint x="770" y="361.76" as="targetPoint" />
          </mxGeometry>
        </mxCell>
        <mxCell id="irH001_9f2ed2AuSBidk-15" value="Інформація про статуси пам&#39;яток" style="text;html=1;align=center;verticalAlign=middle;whiteSpace=wrap;rounded=0;fontSize=10;" vertex="1" parent="1">
          <mxGeometry x="602" y="340" width="160" height="30" as="geometry" />
        </mxCell>
        <mxCell id="irH001_9f2ed2AuSBidk-16" value="" style="endArrow=classic;html=1;rounded=0;entryX=0;entryY=0.25;entryDx=0;entryDy=0;" edge="1" parent="1">
          <mxGeometry width="50" height="50" relative="1" as="geometry">
            <mxPoint x="570" y="391.76" as="sourcePoint" />
            <mxPoint x="770" y="391.76" as="targetPoint" />
          </mxGeometry>
        </mxCell>
        <mxCell id="irH001_9f2ed2AuSBidk-17" value="Платіжні звіти" style="text;html=1;align=center;verticalAlign=middle;whiteSpace=wrap;rounded=0;fontSize=10;" vertex="1" parent="1">
          <mxGeometry x="646" y="370" width="160" height="30" as="geometry" />
        </mxCell>
        <mxCell id="irH001_9f2ed2AuSBidk-24" value="" style="endArrow=classic;html=1;rounded=0;entryX=0.25;entryY=1;entryDx=0;entryDy=0;" edge="1" parent="1">
          <mxGeometry width="50" height="50" relative="1" as="geometry">
            <mxPoint x="340.5" y="560" as="sourcePoint" />
            <mxPoint x="340" y="420" as="targetPoint" />
          </mxGeometry>
        </mxCell>
        <mxCell id="irH001_9f2ed2AuSBidk-26" value="" style="endArrow=classic;html=1;rounded=0;entryX=0.25;entryY=1;entryDx=0;entryDy=0;" edge="1" parent="1">
          <mxGeometry width="50" height="50" relative="1" as="geometry">
            <mxPoint x="424" y="560" as="sourcePoint" />
            <mxPoint x="424" y="420" as="targetPoint" />
          </mxGeometry>
        </mxCell>
        <mxCell id="irH001_9f2ed2AuSBidk-27" value="" style="endArrow=classic;html=1;rounded=0;entryX=0.25;entryY=1;entryDx=0;entryDy=0;" edge="1" parent="1">
          <mxGeometry width="50" height="50" relative="1" as="geometry">
            <mxPoint x="510" y="560" as="sourcePoint" />
            <mxPoint x="510" y="420" as="targetPoint" />
          </mxGeometry>
        </mxCell>
        <mxCell id="irH001_9f2ed2AuSBidk-28" value="Оператори системи" style="text;html=1;align=center;verticalAlign=middle;whiteSpace=wrap;rounded=0;fontSize=10;" vertex="1" parent="1">
          <mxGeometry x="281" y="430" width="50" height="50" as="geometry" />
        </mxCell>
        <mxCell id="irH001_9f2ed2AuSBidk-29" value="Аналітики" style="text;html=1;align=center;verticalAlign=middle;whiteSpace=wrap;rounded=0;fontSize=10;" vertex="1" parent="1">
          <mxGeometry x="370" y="430" width="50" height="50" as="geometry" />
        </mxCell>
        <mxCell id="irH001_9f2ed2AuSBidk-30" value="База даних" style="text;html=1;align=center;verticalAlign=middle;whiteSpace=wrap;rounded=0;fontSize=10;" vertex="1" parent="1">
          <mxGeometry x="460" y="430" width="50" height="50" as="geometry" />
        </mxCell>
        <mxCell id="irH001_9f2ed2AuSBidk-31" value="" style="endArrow=classic;html=1;rounded=0;entryX=0.25;entryY=1;entryDx=0;entryDy=0;" edge="1" parent="1">
          <mxGeometry width="50" height="50" relative="1" as="geometry">
            <mxPoint x="340" y="140" as="sourcePoint" />
            <mxPoint x="340.5" y="280" as="targetPoint" />
          </mxGeometry>
        </mxCell>
        <mxCell id="irH001_9f2ed2AuSBidk-32" value="" style="endArrow=classic;html=1;rounded=0;entryX=0.25;entryY=1;entryDx=0;entryDy=0;" edge="1" parent="1">
          <mxGeometry width="50" height="50" relative="1" as="geometry">
            <mxPoint x="425" y="140" as="sourcePoint" />
            <mxPoint x="425.5" y="280" as="targetPoint" />
          </mxGeometry>
        </mxCell>
        <mxCell id="irH001_9f2ed2AuSBidk-33" value="" style="endArrow=classic;html=1;rounded=0;entryX=0.25;entryY=1;entryDx=0;entryDy=0;" edge="1" parent="1">
          <mxGeometry width="50" height="50" relative="1" as="geometry">
            <mxPoint x="510" y="140" as="sourcePoint" />
            <mxPoint x="510.5" y="280" as="targetPoint" />
          </mxGeometry>
        </mxCell>
        <mxCell id="irH001_9f2ed2AuSBidk-34" value="Закони та нормативні акти" style="text;html=1;align=center;verticalAlign=middle;whiteSpace=wrap;rounded=0;fontSize=10;" vertex="1" parent="1">
          <mxGeometry x="286" y="220" width="50" height="50" as="geometry" />
        </mxCell>
        <mxCell id="irH001_9f2ed2AuSBidk-37" value="Правила реєстрації та обліку культурних пам&#39;яток" style="text;html=1;align=center;verticalAlign=middle;whiteSpace=wrap;rounded=0;fontSize=10;" vertex="1" parent="1">
          <mxGeometry x="370" y="220" width="50" height="50" as="geometry" />
        </mxCell>
        <mxCell id="irH001_9f2ed2AuSBidk-38" value="Правила надання інформації" style="text;html=1;align=center;verticalAlign=middle;whiteSpace=wrap;rounded=0;fontSize=10;" vertex="1" parent="1">
          <mxGeometry x="456" y="220" width="50" height="50" as="geometry" />
        </mxCell>
        <mxCell id="irH001_9f2ed2AuSBidk-40" value="Title:&amp;nbsp;Управління обліком історичних пам’яток&lt;div&gt;Node: A0&lt;/div&gt;&lt;div&gt;Context: TOP&lt;/div&gt;&lt;div&gt;Author: Ковальов Олександр&lt;/div&gt;" style="text;html=1;align=left;verticalAlign=middle;whiteSpace=wrap;rounded=0;" vertex="1" parent="1">
          <mxGeometry x="570" y="110" width="256" height="30" as="geometry" />
        </mxCell>
      </root>
    </mxGraphModel>
  </diagram>
</mxfile>
